<?xml version="1.0" encoding="iso-8859-1"?>
<!-- Generator: Adobe Illustrator 19.0.0, SVG Export Plug-In . SVG Version: 6.00 Build 0)  -->
<svg version="1.1" id="Capa_1" xmlns="http://www.w3.org/2000/svg" xmlns:xlink="http://www.w3.org/1999/xlink" x="0px" y="0px"
	 viewBox="0 0 512 512" style="enable-background:new 0 0 512 512;" xml:space="preserve">
<path style="fill:#B9D8F4;" d="M351.253,468.699h-40.454c-32.879,0-33.61-35.071-33.61-35.071V296.754
	c0-75.987,28.076-82.587,28.076-82.587h-98.531c0,0,28.076,6.6,28.076,82.587v136.874c0,0-0.73,35.071-33.61,35.071h-40.453
	c-11.908,0-21.65,9.743-21.65,21.65S148.84,512,160.747,512h190.506c11.908,0,21.65-9.743,21.65-21.65
	C372.903,478.442,363.161,468.699,351.253,468.699z"/>
<path style="fill:#96C8EF;" d="M202.913,492.222h40.454c32.879,0,33.61-35.071,33.61-35.071l0.212-160.397
	c0-75.987,28.076-82.587,28.076-82.587h-98.531c0,0,28.076,6.6,28.076,82.587v136.874c0,0-0.73,35.071-33.61,35.071h-40.454
	c-11.908,0-21.65,9.743-21.65,21.65S148.84,512,160.747,512h20.611C182.317,500.962,191.637,492.222,202.913,492.222z"/>
<path style="fill:#78B9EB;" d="M230.275,251.174c8.461,1.079,17.037,1.644,25.725,1.644s17.265-0.564,25.725-1.644
	c7.944-33.332,23.54-37.007,23.54-37.007h-98.531C206.734,214.167,222.33,217.841,230.275,251.174z"/>
<path style="fill:#D1E7F8;" d="M459.047,8.671C454.903,3.208,448.441,0,441.584,0H70.416c-6.857,0-13.318,3.208-17.462,8.671
	s-5.494,12.549-3.646,19.152c0.545,1.95,13.705,48.268,44.663,95.016c42.731,64.527,98.76,98.633,162.029,98.633
	s119.298-34.107,162.029-98.633c30.958-46.747,44.119-93.066,44.663-95.016C464.541,21.22,463.191,14.133,459.047,8.671z"/>
<path style="fill:#B9D8F4;" d="M184.571,122.838c-30.958-46.747-44.119-93.066-44.664-95.016
	c-1.848-6.603-0.498-13.689,3.647-19.152C147.698,3.208,154.159,0,161.017,0H70.416c-6.857,0-13.318,3.208-17.462,8.671
	s-5.494,12.549-3.647,19.152c0.545,1.949,13.705,48.268,44.663,95.016c42.731,64.527,98.76,98.633,162.029,98.633
	c15.57,0,30.698-2.076,45.301-6.152C256.563,202.832,216.787,171.487,184.571,122.838z"/>
<path style="fill:#FFFFFF;" d="M419.254,37.069c-2.586-3.468-6.79-5.53-11.272-5.53H104.02c-4.483,0-8.686,2.063-11.272,5.53
	c-2.587,3.468-3.234,7.91-1.736,11.912c4.921,13.152,15.859,39.049,33.813,64.728c17.598,25.171,37.862,44.473,60.229,57.37
	c21.919,12.638,45.788,19.045,70.948,19.045s49.029-6.408,70.948-19.045c22.367-12.897,42.631-32.2,60.228-57.37
	c17.95-25.673,28.89-51.573,33.814-64.727C422.488,44.98,421.84,40.538,419.254,37.069z"/>
<path style="fill:#DDFFFB;" d="M92.746,37.069c-2.587,3.468-3.234,7.91-1.736,11.912c4.921,13.151,15.859,39.049,33.813,64.727
	c17.598,25.171,37.862,44.473,60.229,57.37c19.586,11.292,40.733,17.595,62.962,18.812c-23.367-16.286-44.688-38.731-63.444-67.052
	c-26.325-39.751-39.778-79.186-43.551-91.299h-37C99.536,31.539,95.332,33.602,92.746,37.069z"/>
<g>
	<path style="fill:#AAFFF5;" d="M355.95,65.282c-2.058,0-4.075-0.836-5.538-2.299s-2.299-3.48-2.299-5.538
		c0-2.069,0.836-4.086,2.299-5.548c1.463-1.452,3.479-2.288,5.538-2.288c2.069,0,4.086,0.836,5.548,2.288
		c1.452,1.463,2.288,3.48,2.288,5.548c0,2.058-0.836,4.075-2.288,5.538C360.035,64.446,358.019,65.282,355.95,65.282z"/>
	<path style="fill:#AAFFF5;" d="M159.225,69.425c-2.058,0-4.075-0.836-5.538-2.299c-1.463-1.463-2.299-3.48-2.299-5.538
		c0-2.069,0.836-4.086,2.299-5.548c1.463-1.452,3.48-2.288,5.538-2.288c2.069,0,4.086,0.836,5.548,2.288
		c1.452,1.463,2.288,3.48,2.288,5.548c0,2.058-0.836,4.075-2.288,5.538C163.31,68.588,161.294,69.425,159.225,69.425z"/>
	<path style="fill:#AAFFF5;" d="M146.934,107.463c-2.058,0-4.075-0.836-5.538-2.299c-1.463-1.463-2.299-3.48-2.299-5.538
		c0-2.069,0.836-4.086,2.299-5.548c1.463-1.452,3.48-2.288,5.538-2.288c2.069,0,4.086,0.836,5.548,2.288
		c1.452,1.463,2.288,3.48,2.288,5.548c0,2.058-0.836,4.075-2.288,5.538C151.019,106.627,149.003,107.463,146.934,107.463z"/>
	<path style="fill:#AAFFF5;" d="M182.735,133.355c-2.058,0-4.075-0.836-5.538-2.299c-1.463-1.463-2.299-3.48-2.299-5.538
		c0-2.069,0.836-4.086,2.299-5.548c1.463-1.452,3.48-2.288,5.538-2.288c2.069,0,4.086,0.836,5.548,2.288
		c1.452,1.463,2.288,3.48,2.288,5.548c0,2.058-0.836,4.075-2.288,5.538C186.821,132.519,184.804,133.355,182.735,133.355z"/>
	<path style="fill:#AAFFF5;" d="M190.572,90.133c-2.058,0-4.075-0.836-5.538-2.299c-1.463-1.463-2.299-3.48-2.299-5.538
		c0-2.069,0.836-4.086,2.299-5.548c1.463-1.452,3.48-2.288,5.538-2.288c2.069,0,4.086,0.836,5.548,2.288
		c1.452,1.463,2.288,3.48,2.288,5.548c0,2.058-0.836,4.075-2.288,5.538C194.657,89.297,192.641,90.133,190.572,90.133z"/>
	<path style="fill:#AAFFF5;" d="M393.044,61.588c-2.058,0-4.075-0.836-5.538-2.299c-1.463-1.463-2.299-3.48-2.299-5.538
		c0-2.069,0.836-4.086,2.299-5.548c1.463-1.452,3.479-2.288,5.538-2.288c2.069,0,4.086,0.836,5.548,2.288
		c1.452,1.463,2.288,3.48,2.288,5.548c0,2.058-0.836,4.075-2.288,5.538C397.129,60.751,395.113,61.588,393.044,61.588z"/>
	<path style="fill:#AAFFF5;" d="M356.995,102.169c-3.464-2.594-4.413-7.365-1.932-10.913c2.424-3.467,4.821-7.119,7.123-10.85
		c2.272-3.684,7.101-4.831,10.783-2.555c3.683,2.272,4.827,7.1,2.555,10.783c-2.459,3.985-5.022,7.89-7.617,11.603
		C366.385,102.417,362.319,106.156,356.995,102.169z"/>
	<path style="fill:#AAFFF5;" d="M313.249,143.05c-2.126-3.77-1.553-8.444,2.012-10.898c8.406-5.787,16.563-12.976,24.241-21.367
		c2.923-3.194,7.88-3.415,11.072-0.492c3.194,2.922,3.414,7.879,0.492,11.072c-8.478,9.266-17.534,17.24-26.919,23.698
		C322.791,145.996,316.604,148.997,313.249,143.05z"/>
</g>
<g>
	<path style="fill:#FFCD00;" d="M247.346,25.898l-37.461,68.78c-5.494,10.087-1.736,22.836,8.352,28.33
		c10.087,5.494,22.836,1.736,28.33-8.352l37.461-68.779c5.494-10.087,1.736-22.836-8.352-28.33
		C265.589,12.052,252.84,15.81,247.346,25.898z"/>
	<path style="fill:#FFCD00;" d="M285.043,72.469l-37.461,68.779c-5.494,10.087-1.736,22.836,8.352,28.33
		c10.087,5.494,22.836,1.736,28.33-8.352l37.461-68.779c5.494-10.087,1.736-22.836-8.352-28.33
		C303.286,58.623,290.537,62.381,285.043,72.469z"/>
</g>
<path style="fill:#FFDE55;" d="M297.462,62.457l-75.123,22.146c-11.018,3.248-17.376,14.92-14.127,25.939
	s14.92,17.376,25.939,14.127l75.123-22.146c11.018-3.249,17.376-14.92,14.127-25.939C320.153,65.566,308.48,59.209,297.462,62.457z"
	/>
<g>
</g>
<g>
</g>
<g>
</g>
<g>
</g>
<g>
</g>
<g>
</g>
<g>
</g>
<g>
</g>
<g>
</g>
<g>
</g>
<g>
</g>
<g>
</g>
<g>
</g>
<g>
</g>
<g>
</g>
</svg>
