<svg id="Layer_1" enable-background="new 0 0 256 256" height="512" viewBox="0 0 256 256" width="512" xmlns="http://www.w3.org/2000/svg"><g><g><path d="m186.84 64.16v123.96c0 6.86-.65 13.7-1.94 20.41s-3.21 13.29-5.75 19.67c-1.33 3.35-4.57 5.54-8.18 5.54h-86.08c-3.62 0-6.88-2.22-8.2-5.59l-.08-.22c-4.92-12.58-7.45-25.96-7.45-39.47v-123.92c0-3.31.4-6.57 1.17-9.75 1.14-4.71 3.11-9.2 5.84-13.26l12.97-19.34h78.45l12.63 19.55c2.6 4.02 4.47 8.43 5.53 13.05.72 3.05 1.09 6.2 1.09 9.37z" fill="#ff4a73"/><path d="m163.721 250.125h-71.442c-2.761 0-5-2.239-5-5v-11.38h81.441v11.38c.001 2.761-2.238 5-4.999 5z" fill="#ffe2e2"/><path d="m171.091 22.193h-86.182c-4.506 0-8.159-3.653-8.159-8.159 0-4.506 3.653-8.159 8.159-8.159h86.182c4.506 0 8.159 3.653 8.159 8.159 0 4.506-3.653 8.159-8.159 8.159z" fill="#ffe2e2"/><path d="m99.89 233.74h-15c-3.62 0-6.88-2.22-8.2-5.59l-.08-.22c-4.92-12.58-7.45-25.96-7.45-39.47v-123.92c0-3.31.4-6.57 1.17-9.75 1.14-4.71 3.11-9.2 5.84-13.26l12.97-19.34h15l-12.97 19.34c-2.73 4.06-4.7 8.55-5.84 13.26-.77 3.18-1.17 6.44-1.17 9.75v123.92c0 13.51 2.53 26.89 7.45 39.47l.08.22c1.32 3.37 4.58 5.59 8.2 5.59z" fill="#f973a3"/><path d="m84.16 98.8v71.94c-9.19-1.97-15-3.95-15-3.95v-93.33s4.33 12.08 15 25.34z" fill="#f9e27d"/><path d="m186.84 64.16v123.96c0 6.86-.65 13.7-1.94 20.41s-3.21 13.29-5.75 19.67c-1.33 3.35-4.57 5.54-8.18 5.54h-15c3.61 0 6.85-2.19 8.18-5.54 2.54-6.38 4.46-12.96 5.75-19.67s1.94-13.55 1.94-20.41v-123.96c0-3.17-.37-6.32-1.09-9.37-1.06-4.62-2.93-9.03-5.53-13.05l-12.63-19.55h15l12.63 19.55c2.6 4.02 4.47 8.43 5.53 13.05.72 3.05 1.09 6.2 1.09 9.37z" fill="#ea2a6a"/><path d="m186.84 127.88v17.58c-35.5 49.33-117.68 21.33-117.68 21.33v-93.33s27.45 76.66 114.65 55.66z" fill="#f9d335"/><path d="m84.16 98.8v71.94c-9.19-1.97-15-3.95-15-3.95v-93.33s4.33 12.08 15 25.34z" fill="#f9e27d"/><g fill="#f2c300"><path d="m186.84 127.88v17.58c-4.37 6.07-9.45 10.98-15 14.9v-28.9c3.86-.57 7.85-1.35 11.97-2.34z"/><path d="m186.84 127.88v17.58c-4.37 6.07-9.45 10.98-15 14.9v-28.9c3.86-.57 7.85-1.35 11.97-2.34z"/></g></g><g fill="#5f266d"><path d="m92.279 254.125h71.441c4.962 0 9-4.038 9-9v-7.503c4.54-.614 8.416-3.593 10.149-7.944 5.287-13.279 7.967-27.259 7.967-41.552v-123.971c0-8.743-2.508-17.245-7.253-24.588l-8.98-13.896c4.997-1.511 8.647-6.154 8.647-11.637 0-6.705-5.455-12.159-12.159-12.159h-86.182c-6.705 0-12.159 5.455-12.159 12.159 0 5.666 3.901 10.426 9.155 11.768l-9.059 13.5c-5.026 7.491-7.684 16.22-7.684 25.241v123.917c0 14.062 2.598 27.832 7.721 40.927l.085.218c1.735 4.436 5.683 7.455 10.31 8.031v7.488c.001 4.963 4.039 9.001 9.001 9.001zm72.442-9c0 .551-.449 1-1 1h-71.442c-.551 0-1-.449-1-1v-7.38h73.441v7.38zm-83.971-231.091c0-2.293 1.866-4.159 4.159-4.159h86.182c2.293 0 4.159 1.866 4.159 4.159s-1.866 4.159-4.159 4.159c-8.541 0-75.431 0-86.182 0-2.293 0-4.159-1.865-4.159-4.159zm-1.26 29.726 11.787-17.566h74.138l11.449 17.716c1.409 2.181 2.569 4.489 3.489 6.882h-104.556c.974-2.451 2.202-4.81 3.693-7.032zm-6.327 20.784c0-1.939.157-3.86.451-5.752h108.836c.256 1.768.386 3.56.386 5.364v61.089c-34.634 8.332-63.6 2.011-86.091-18.789-15.225-14.081-22.26-30.429-23.582-33.742zm0 25.633c17.89 28.943 46.309 46.56 81.85 46.56 8.507 0 17.78-1.012 27.824-3.292v10.677c-30.174 40.171-95.584 23.824-109.674 19.715zm7.256 136.513-.085-.218c-4.758-12.163-7.171-24.952-7.171-38.012v-16.285c36.551 10.183 82.51 11.082 109.674-15.889v31.838c0 13.275-2.49 26.26-7.4 38.593-.732 1.838-2.483 3.026-4.462 3.026h-2.254-81.442-2.387c-1.991.002-3.747-1.197-4.473-3.053z"/><path d="m166.333 113.333c2.209 0 4-1.791 4-4v-3.875c0-2.209-1.791-4-4-4s-4 1.791-4 4v3.875c0 2.209 1.792 4 4 4z"/><path d="m166.333 94.458c2.209 0 4-1.791 4-4v-17c0-2.209-1.791-4-4-4s-4 1.791-4 4v17c0 2.209 1.792 4 4 4z"/></g></g></svg>